<svg width="199" height="182" viewBox="0 0 199 182" fill="none" xmlns="http://www.w3.org/2000/svg">
<path d="M47.1221 49.3142C47.1221 47.6574 48.4652 46.3142 50.1221 46.3142H148.879C150.536 46.3142 151.879 47.6574 151.879 49.3142V133.686C151.879 135.342 150.536 136.686 148.879 136.686H50.1221C48.4652 136.686 47.1221 135.342 47.1221 133.686V49.3142Z" fill="#FF9107" fill-opacity="0.949"/>
<path fill-rule="evenodd" clip-rule="evenodd" d="M47.25 91.5L99.5 136.686H3.05533C0.276634 136.686 -1.00881 133.234 1.09296 131.417L47.25 91.5ZM151.75 91.5L197.907 131.417C200.009 133.234 198.723 136.686 195.945 136.686H99.5L151.75 91.5ZM99.5 46.3145H195.945C198.723 46.3145 200.009 49.766 197.907 51.5836L151.75 91.5L99.5 46.3145ZM1.09297 51.5836C-1.0088 49.766 0.276638 46.3145 3.05534 46.3145H99.5L47.25 91.5L1.09297 51.5836Z" fill="#AE0057"/>
<path fill-rule="evenodd" clip-rule="evenodd" d="M143.826 0.80867C146.604 0.80867 147.89 4.25962 145.789 6.07745L101.463 44.4249L99.5 46.3086L97.5376 44.4249L53.2122 6.07745C51.1109 4.25963 52.3965 0.80867 55.175 0.80867H143.826Z" fill="#7F0074"/>
<path fill-rule="evenodd" clip-rule="evenodd" d="M55.175 182C52.3966 182 51.1109 178.549 53.2122 176.731L97.5376 138.384L99.5004 136.7L101.463 138.384L145.789 176.731C147.89 178.549 146.604 182 143.826 182H55.175Z" fill="#7F0074"/>
</svg>
